<svg xmlns="http://www.w3.org/2000/svg" width="580" height="222" viewBox="0 0 580 222"><defs><style>.m{font-family:"Courier New",Courier,monospace}</style></defs><rect width="580" height="222" rx="10" fill="#0d1117" stroke="#30363d" stroke-width="1"/><rect width="580" height="32" rx="10" fill="#161b22"/><rect y="22" width="580" height="10" fill="#161b22"/><circle cx="22" cy="16" r="5.5" fill="#ff5f56"/><circle cx="42" cy="16" r="5.5" fill="#ffbd2e"/><circle cx="62" cy="16" r="5.5" fill="#27c93f"/><text x="290" y="21" class="m" font-size="11.5" fill="#6e7681" text-anchor="middle">ayush@github &mdash; bash</text><text x="18" y="56" class="m" font-size="13" fill="#3fb950">&#x279C;</text><text x="34" y="56" class="m" font-size="13" fill="#58a6ff">~/stats</text><text x="104" y="56" class="m" font-size="13" fill="#c9d1d9"> cat github-stats.json</text><text x="18" y="74" class="m" font-size="13" fill="#8b949e">{</text><text x="34" y="91" class="m" font-size="13" fill="#79c0ff">"login"</text><text x="118" y="91" class="m" font-size="13" fill="#8b949e">:</text><text x="128" y="91" class="m" font-size="13" fill="#a5d6ff">"{{USER}}"</text><text x="34" y="108" class="m" font-size="13" fill="#79c0ff">"repos"</text><text x="118" y="108" class="m" font-size="13" fill="#8b949e">:</text><text x="128" y="108" class="m" font-size="13" fill="#f2cc60">{{REPOS}}</text><text x="168" y="108" class="m" font-size="12" fill="#6e7681">// public repos</text><text x="34" y="125" class="m" font-size="13" fill="#79c0ff">"followers"</text><text x="118" y="125" class="m" font-size="13" fill="#8b949e">:</text><text x="128" y="125" class="m" font-size="13" fill="#f2cc60">{{FOLLOWERS}}</text><text x="175" y="125" class="m" font-size="12" fill="#6e7681">// engineers following</text><text x="34" y="142" class="m" font-size="13" fill="#79c0ff">"gists"</text><text x="118" y="142" class="m" font-size="13" fill="#8b949e">:</text><text x="128" y="142" class="m" font-size="13" fill="#f2cc60">{{GISTS}}</text><text x="158" y="142" class="m" font-size="12" fill="#6e7681">// public gists</text><text x="34" y="159" class="m" font-size="13" fill="#79c0ff">"focus"</text><text x="118" y="159" class="m" font-size="13" fill="#8b949e">:</text><text x="128" y="159" class="m" font-size="13" fill="#a5d6ff">"ML  CV  3D Deep Learning"</text><text x="34" y="176" class="m" font-size="13" fill="#79c0ff">"updated"</text><text x="118" y="176" class="m" font-size="13" fill="#8b949e">:</text><text x="128" y="176" class="m" font-size="13" fill="#a5d6ff">"{{DATE}}"</text><text x="18" y="194" class="m" font-size="13" fill="#8b949e">}</text><text x="18" y="212" class="m" font-size="13" fill="#3fb950">&#x279C;</text><text x="34" y="212" class="m" font-size="13" fill="#58a6ff">~/stats</text><rect x="106" y="200" width="8" height="13" fill="#c9d1d9"><animate attributeName="opacity" values="1;0;1" dur="1.1s" repeatCount="indefinite"/></rect></svg>
